<?xml version="1.0" encoding="utf-8"?>
<!-- Generator: Adobe Illustrator 16.0.0, SVG Export Plug-In . SVG Version: 6.00 Build 0)  -->
<!DOCTYPE svg PUBLIC "-//W3C//DTD SVG 1.1//EN" "http://www.w3.org/Graphics/SVG/1.1/DTD/svg11.dtd">
<svg version="1.1" id="Layer_1" xmlns="http://www.w3.org/2000/svg" xmlns:xlink="http://www.w3.org/1999/xlink" x="0px" y="0px"
	 width="300px" height="295px" viewBox="0 2.5 300 295" enable-background="new 0 2.5 300 295" xml:space="preserve">
<metadata><?xpacket begin="﻿" id="W5M0MpCehiHzreSzNTczkc9d"?>
<x:xmpmeta xmlns:x="adobe:ns:meta/" x:xmptk="Adobe XMP Core 5.3-c011 66.145661, 2012/02/06-14:56:27        ">
   <rdf:RDF xmlns:rdf="http://www.w3.org/1999/02/22-rdf-syntax-ns#">
      <rdf:Description rdf:about=""
            xmlns:xmp="http://ns.adobe.com/xap/1.0/"
            xmlns:xmpGImg="http://ns.adobe.com/xap/1.0/g/img/">
         <xmp:CreatorTool>Adobe Illustrator CS6 (Windows)</xmp:CreatorTool>
         <xmp:CreateDate>2018-09-26T16:28:03+05:30</xmp:CreateDate>
         <xmp:Thumbnails>
            <rdf:Alt>
               <rdf:li rdf:parseType="Resource">
                  <xmpGImg:width>256</xmpGImg:width>
                  <xmpGImg:height>252</xmpGImg:height>
                  <xmpGImg:format>JPEG</xmpGImg:format>
                  <xmpGImg:image>/9j/4AAQSkZJRgABAgEASABIAAD/7QAsUGhvdG9zaG9wIDMuMAA4QklNA+0AAAAAABAASAAAAAEA&#xA;AQBIAAAAAQAB/+4ADkFkb2JlAGTAAAAAAf/bAIQABgQEBAUEBgUFBgkGBQYJCwgGBggLDAoKCwoK&#xA;DBAMDAwMDAwQDA4PEA8ODBMTFBQTExwbGxscHx8fHx8fHx8fHwEHBwcNDA0YEBAYGhURFRofHx8f&#xA;Hx8fHx8fHx8fHx8fHx8fHx8fHx8fHx8fHx8fHx8fHx8fHx8fHx8fHx8fHx8f/8AAEQgA/AEAAwER&#xA;AAIRAQMRAf/EAaIAAAAHAQEBAQEAAAAAAAAAAAQFAwIGAQAHCAkKCwEAAgIDAQEBAQEAAAAAAAAA&#xA;AQACAwQFBgcICQoLEAACAQMDAgQCBgcDBAIGAnMBAgMRBAAFIRIxQVEGE2EicYEUMpGhBxWxQiPB&#xA;UtHhMxZi8CRygvElQzRTkqKyY3PCNUQnk6OzNhdUZHTD0uIIJoMJChgZhJRFRqS0VtNVKBry4/PE&#xA;1OT0ZXWFlaW1xdXl9WZ2hpamtsbW5vY3R1dnd4eXp7fH1+f3OEhYaHiImKi4yNjo+Ck5SVlpeYmZ&#xA;qbnJ2en5KjpKWmp6ipqqusra6voRAAICAQIDBQUEBQYECAMDbQEAAhEDBCESMUEFURNhIgZxgZEy&#xA;obHwFMHR4SNCFVJicvEzJDRDghaSUyWiY7LCB3PSNeJEgxdUkwgJChgZJjZFGidkdFU38qOzwygp&#xA;0+PzhJSktMTU5PRldYWVpbXF1eX1RlZmdoaWprbG1ub2R1dnd4eXp7fH1+f3OEhYaHiImKi4yNjo&#xA;+DlJWWl5iZmpucnZ6fkqOkpaanqKmqq6ytrq+v/aAAwDAQACEQMRAD8A9EYq7FXYq7FXYq7FXYq7&#xA;FXYq7FXYq7FXYq7FXYq7FXYq7FXYq7FXYq7FXYq7FXYq7FXYq7FXYq7FXYq7FXYq7FXYq7FXYq7F&#xA;XYq7FXYq7FXYq7FXYq7FXYq7FXYq7FXYq7FXYq7FXYq7FXYq7FXYq7FXYq7FXYq7FXYq7FXYq7FX&#xA;Yq7FXYq7FXYq7FXYq7FXYq7FXYq7FXYq7FXYq7FXYq7FXYq7FXYq7FXYq7FXYq7FXYq7FXYq7FXY&#xA;q7FXYq7FXYq7FXYq7FXYq7FXYq7FXYq7FXYq7FXYq7FXYq7FXYq7FXYq7FXYq7FXYq7FXYq7FXYq&#xA;7FXYq7FXYq7FXYq7FXYq7FXYq7FXYq7FXYq7FXYq7FXYq7FXYq7FXYq7FXYq7FXYq7FXYq7FXYq7&#xA;FXYq7FXYq7FXYq7FXYq7FXYq7FXYq7FXYq7FXYq7FXYq7FXYq7FXYq7FXYq7FXYq7FXYq7FXYq7F&#xA;XYq7FXYq7FXYq7FXYq7FXYq7FXYq7FXYq7FXYq7FXYq7FXYq7FXYq7FXYq7FXYq7FXYq7FXYq7FX&#xA;Yq7FXYq7FXYq7FXYq7FXYq7FXYq7FXYq7FXYq7FXYq7FXYq7FXYq7FXYq7FXYq7FXYq7FXYq7FXY&#xA;q7FXYq7FXYq7FXYq7FXYq7FXYq7FXYq7FXYq7FXYq7FXYq7FXYq7FXYq7FXYq7FXYq7FXYq7FXYq&#xA;7FXYq7FXYq7FXYq7FXYq7FXYq7FXYq7FXYq7FXYq7FXYq7FXYq7FXYqw/wAx/mFb6dcvZ2MQubiM&#xA;0lkY0jVv5dt2PjimkPof5lRXNytvqcK24kNFuEJ4AnpzDdB71xWmcYodirsVdirsVdirsVdirsVd&#xA;irsVdirsVdirsVdirsVdirsVdirsVdirsVdirsVdirsVdirsVSHzlr40jSGaNqXlxWO3HcEj4n/2&#xA;I/GmKvHySTU7k9TgZNYq9U/L7zB+kNM+oztW7sgFBPVouin/AGP2T9GFBZXih2KuxV2KuxV2KuxV&#xA;2KuxV2KuxV2KuxV2KuxV2KuxV2KuxV2KuxV2KuxV2KuxV2KuxVp3VFLuQqqCWY7AAdScVeNeatdb&#xA;WdWkuFJ+rR/u7ZT2Qd/m3XFKVxWl1KvKKF5F6clUkV+gYErmsb1FLPbyKq7lijAAfdiqI0PVptJ1&#xA;OG9i39M0kT+ZDsy/dih7Xa3MN1bRXMDc4ZlDow7giuFCrirsVdirsVdirsVdirsVdirsVdirsVdi&#xA;rsVdirsVdirsVdirsVdirsVdirsVdirsVYZ+Y3mD6rZDS4GpPdCs5B3WLw/2Z2+VcUh5ngS9P/LC&#xA;TloVwh/YuWp8iiYUFN/OUvp+WNQbpWPj4fbYL/HFDxnAyZ/+Wuv7vo1w3jJaE/e6f8bD6cKC9AxQ&#xA;7FXYq7FXYq7FXYq7FXYq7FXYq7FXYq7FXYq7FXYq7FXYq7FXYq7FXYq7FXYqh9Qvrewspry4PGGB&#xA;SzeJ8APcnYYq8T1TUbjUtQmvbg/vJmrTso6Ko9gNsDJCYq9E/KuSttqMX8rxN/wQYf8AGuFBTf8A&#xA;MKTh5WuF/wB+PEv/AA4b/jXFAeSYGSrbXM1tcR3EDFJomDow7EGuKva9C1eHVtLhvYqAuKSoP2XH&#xA;2l/z7YWKPxV2KuxV2KuxV2KuxV2KuxV2KuxV2KuxV2KuxV2KuxV2KuxV2KuxV2KuxV2KvN/zI8we&#xA;vcrpEDVigIe5I7ydl/2I/H5YpDCMCXYqzr8q5aXeoRfzRxtT/VYj/jbCgpt+Z0nHQIU7vcoKewRz&#xA;ioeX4EuxVlf5f+YP0fqf1KZqWl6Qu52WXorfT0P0eGFBeqYodirsVdirsVdirsVdirsVdirsVdir&#xA;sVdirsVdirsVdirsVdirsVdirsVSrzNrcej6TLdGhmPwW6HvI3T6B1OKvF5ZJJZHlkYvJISzsdyW&#xA;JqScDJbirsVZD5K16z0XUpri7DmGSExgRgMeXNSOpHYHChHedvNmna1a20FmJR6UheT1FCjpQUoT&#xA;irEMCXYq4Gm4xV6/5L1/9L6QvqtW8tqR3Hidvhf/AGQ/GuFiyDFXYq7FXYq7FXYq7FXYq7FXYq7F&#xA;XYq7FXYq7FXYq7FXYq7FXYq7FXYq8j88a+dV1do4mrZ2lY4fBj+2/wBJG3tikMcwJdirsVZl+XWh&#xA;adqE91c3kYn+rcBHC9ClX5fEynr9nbCgpr+YPl3SotK/SNtCltPE6qwjUKrq5pQgUFR1rioecYEu&#xA;xV2Kpv5W1x9H1eO5JJt3/d3Kjujd/mvXCh7OrK6hlIZWFVI3BBxQ3irsVdirsVdirsVdirsVdirs&#xA;VdirsVdirsVdirsVdirsVdirsVUL/wBb6jcej/fek/pU/m4nj+OKvB8DJ2KuxV2Ko/R9b1DSLo3F&#xA;lIFZhxkRhVWHgwxVE675q1bWgiXbKkKHksMQKpy6VNSxJ+nChJ8CXYq7FXYq9s8sCYeXtOE1efoJ&#xA;160p8P4UwsUzxV2KuxV2KuxV2KuxV2KuxV2KuxV2KuxV2KuxV2KuxV2KuxV2KuxViGuflzp9/cvc&#xA;2kxs5ZDyePjzjJPUgVUrXFNpOfysv+19FT/VbFbd/wAqs1D/AJbov+BbFbd/yqzUP+W6L/gWxW3f&#xA;8qs1D/lui/4FsVt3/KrNQ/5bov8AgWxW3f8AKrNQ/wCW6L/gWxW3f8qs1D/lui/4FsVt3/KrNQ/5&#xA;bov+BbFbTLSfyzsbedZr+4N2ENRCq8EJH827Ej7sVtmoAAAAoBsAMUOxV2KuxV2KuxV2KuxV2Kux&#xA;V2KuxV2KuxV2KuxV2KuxV2KuxV2KuxV2KuxV2KuxV2KuxV2KuxV2KuxV2KuxV2KuxV2KuxV2KuxV&#xA;2KuxV2KuxV2KuxV2KuxV2KuxVB6jqtrYParOGJvJlt4uIr8b9K7jbFVkGuafNql1piuRdWiq8gag&#xA;BVgDVTX9morirtI1qx1a2kubRiYYpGiZmHHdQDUe1GGKrdH1/TtWtpbm1ciKFykhkHGlBWvXpTFU&#xA;BH520mWcRwxXM0Rf0xdJETFyJp9qtfwxVu786aXbXk9oYLmWW3bhIYouag/MHFUfqGt2lhpQ1O4V&#xA;xbkI3EL8Y9SlKgkeO+Kul13T0ewUMZBqRpaugqp2BqakU64qgLzzro9tcywBZ7j6uaXEsEfOOM9+&#xA;TVHTFW77zro1okUpE01vNGJUnhTknEsVoSStDVemKo/SNYt9VgeaCOWJUbiRMnAk0BqBU7b4ql1h&#xA;520u+nihgguj6zBFkMXwAk03YE4q1N560OOWRVE80MTcZbqKMtCp92/oMVTFdc09720tI2Mj3sZm&#xA;t5FFUKKK7mv8MVWXXmGwtrm7t5A/qWcH1magBHD2364qsbzNpY0y21IFntrp1ij4gFg7EijCu1CN&#xA;8VQ13510m1vJ7WSO4LWzcZpEj5IvepIOKpzZ3lre20dzayCWCQVR174qrYq7FXYq7FXYq7FXYq7F&#xA;XYq7FXYq7FXYq7FWN+cP96NC/wC2lB+vFLH10G81m61XULGYw3Iv5LXnWgNuQEk+5Wr/AG4q4TjR&#xA;LPzDpNrUSNPFDZpX4j9ZQjb34riqlYWGraZLd6TNbi2bVrJ47ZFcMHmhjp1B2Litfc4qi4fN8Vn5&#xA;esLewkjhvrfhBc2c0b8yQQrFaUHX4sVUvrdvb+ZtWabWG0xfrCH0lQuJQBvWnSmKp758ljm8ozSx&#xA;nlHIYXRvFWdSDioSSTT7vSvNGlaaatpq3Lz2DmpKrIPjjr/kkfjXviqJ8s67pWh6Xc6dqpMF9byy&#xA;GaNlYmXl0I2oajbFUMbW4t/yzu/XQx+rIssUbbFUadOP6q4qz23/AN54v9Rf1YoYV5K0rUZdCW4j&#xA;1B1hkSeNLLiOAY8lDcq1+1viktaL5g0bTfLEmmXwMV9AJYp7Nkbk7sWp2oeVaYqhtPSXQ38uXmph&#xA;ordYriORyCfTMpZkDUFRs36/DFVa6uotSuvMeo2hL2SWH1dZqEBnpU8a/LFUrvLC807T9JEVW0zU&#xA;TaXDA1Pp3IQcv+DBr/tYqnthr+k6VrnmD6/N6ZknQxpxZi3FTWlAfHFUx8i2lxBpU0kkZgiuriSe&#xA;2gYUKRtQLt9GKGR4q7FXYq7FXYq7FXYq7FXYq7FXYq7FXYq7FWmVWpyANDUV7HFXKirUKAoO5oKb&#xA;4q0Yoy3IoC2xrQVqOmKtlVJBIBI6E9sVWG2tzL6piT1f9+cRy+/rirZghYktGpJ6kgYquKIV4lQV&#xA;/lI2xVxVSQSASNwT2xVZJb28jK8kSO6/ZZlBI+ROKr2VWHFgCD1B3GKt4q0qqoooCjwGwxVY1vA0&#xA;glaNWkX7LlQWHyOKrpI45FKSKHQ9VYAg/QcVaSGJI/TRFWP+QAAfdiq4ohUKVBUdBTbbFVphhLci&#xA;ilutaCuKr8VdirsVdirsVdirsVdirsVdirsVdirsVdirsVdirsVdirsVdirsVdirsVdirsVdirsV&#xA;dirsVdirsVdirsVdirsVdirsVdirsVdirsVdirsVdirsVdirsVdirsVdirsVdirsVdirsVdirsVd&#xA;irsVdirsVdirsVdirsVdirsVdirsVdirsVdirsVdirsVdirsVdirsVdirsVdirsVdirsVdirsVdi&#xA;rsVdirsVdirsVdirsVdirsVdirsVdirsVdirsVdirsVdirsVdirsVdirsVdirsVdirsVdirsVdir&#xA;sVdirsVdirsVdirsVdirsVdirsVdirsVdirsVdirsVdirsVdirsVdirsVdirsVdirsVdirsVdirs&#xA;VdirsVdirsVdirsVdirsVdirsVdirsVdirsVdirsVdirsVdirsVdirsVdirsVdirsVdirsVdirsV&#xA;dirsVdirsVdirsVdirsVdirsVdirsVdirsVdirsVdirsVdirsVdirsVdirsVdirsVdirsVdirsVd&#xA;irsVdirsVdirsVdirsVdirsVdirsVdirsVdirsVdirsVdirsVdirsVdirsVdirsVdirsVdirsVdi&#xA;rsVdirsVdirsVdirsVdirsVdirsVdirsVdirsVdirsVdirsVdirsVdirsVdiq7937/hirv3fv+GK&#xA;u/d+/wCGKu/d+/4Yq7937/hirv3fv+GKu/d+/wCGKu/d+/4Yq7937/hirv3fv+GKu/d+/wCGKu/d&#xA;+/4Yq7937/hirv3fv+GKu/d+/wCGKu/d+/4Yq7937/hirv3fv+GKu/d+/wCGKu/d+/4Yq7937/hi&#xA;rv3fv+GKu/d+/wCGKu/d+/4Yq7937/hirv3fv+GKu/d+/wCGKu/d+/4Yq7937/hirv3fv+GKu/d+&#xA;/wCGKu/d+/4Yq//Z</xmpGImg:image>
               </rdf:li>
            </rdf:Alt>
         </xmp:Thumbnails>
      </rdf:Description>
      <rdf:Description rdf:about=""
            xmlns:xmpTPg="http://ns.adobe.com/xap/1.0/t/pg/"
            xmlns:stDim="http://ns.adobe.com/xap/1.0/sType/Dimensions#"
            xmlns:xmpG="http://ns.adobe.com/xap/1.0/g/">
         <xmpTPg:MaxPageSize rdf:parseType="Resource">
            <stDim:w>300.000000</stDim:w>
            <stDim:h>295.000000</stDim:h>
            <stDim:unit>Pixels</stDim:unit>
         </xmpTPg:MaxPageSize>
         <xmpTPg:NPages>1</xmpTPg:NPages>
         <xmpTPg:HasVisibleTransparency>False</xmpTPg:HasVisibleTransparency>
         <xmpTPg:HasVisibleOverprint>False</xmpTPg:HasVisibleOverprint>
         <xmpTPg:PlateNames>
            <rdf:Seq>
               <rdf:li>Cyan</rdf:li>
               <rdf:li>Magenta</rdf:li>
               <rdf:li>Yellow</rdf:li>
               <rdf:li>Black</rdf:li>
            </rdf:Seq>
         </xmpTPg:PlateNames>
         <xmpTPg:SwatchGroups>
            <rdf:Seq>
               <rdf:li rdf:parseType="Resource">
                  <xmpG:groupName>Default Swatch Group</xmpG:groupName>
                  <xmpG:groupType>0</xmpG:groupType>
               </rdf:li>
            </rdf:Seq>
         </xmpTPg:SwatchGroups>
      </rdf:Description>
      <rdf:Description rdf:about=""
            xmlns:dc="http://purl.org/dc/elements/1.1/">
         <dc:format>image/svg+xml</dc:format>
      </rdf:Description>
   </rdf:RDF>
</x:xmpmeta>
                                                                                                    
                                                                                                    
                                                                                                    
                                                                                                    
                                                                                                    
                                                                                                    
                                                                                                    
                                                                                                    
                                                                                                    
                                                                                                    
                                                                                                    
                                                                                                    
                                                                                                    
                                                                                                    
                                                                                                    
                                                                                                    
                                                                                                    
                                                                                                    
                                                                                                    
                                                                                                    
                           
<?xpacket end="w"?>
	</metadata>
<rect y="2.5" fill="#E6E6E6" width="300" height="295"/>
<g>
	<path id="image_Not_Found" fill="#898686" d="M73.723,208.993v-12.6h-2.3v12.6H73.723z M89.223,208.993l-1.747-12.6h-1.889
		l-3.061,5.744l-3.08-5.748h-1.891l-1.746,12.6h2.396l1.08-8.427l3.241,5.78l3.223-5.801l1.08,8.445h2.395L89.223,208.993z
		 M101.21,208.993l-4.483-12.6h-2.181l-4.482,12.6h2.395l1.08-3.043h4.2l1.08,3.043h2.395H101.21z M96.946,203.721h-2.613l1.3-3.691
		L96.946,203.721z M107.854,209.249c1.491-0.01,2.964-0.335,4.32-0.955v-5.617h-3.69v1.908h1.386v2.25
		c-0.568,0.125-1.146,0.191-1.729,0.201c-2.61,0-3.925-1.818-3.925-4.394c0-2.449,1.188-4.286,3.817-4.286
		c1.191,0.034,2.368,0.278,3.475,0.721l0.252-2.199c-1.2-0.49-2.484-0.74-3.78-0.738c-3.691,0-6.284,2.593-6.284,6.535
		c-0.002,3.978,2.627,6.57,6.155,6.57L107.854,209.249z M122.654,208.997v-2.236h-5.889v-3.223h4.43v-2.233h-4.43v-2.685h5.708
		v-2.232h-8.066v12.6h8.239L122.654,208.997z M138.638,208.997v-12.601h-2.3v8.138l-5.384-8.138h-2.278v12.601h2.306v-8.646
		l5.762,8.643h1.89L138.638,208.997z M146.863,209.249c3.6,0,6.212-2.594,6.212-6.555s-2.611-6.554-6.212-6.554
		c-3.602,0-6.212,2.593-6.212,6.554s2.605,6.551,6.207,6.551L146.863,209.249z M146.863,198.354c2.449,0,3.69,1.818,3.69,4.34
		s-1.241,4.34-3.69,4.34s-3.691-1.818-3.691-4.34s1.237-4.343,3.687-4.343L146.863,198.354z M163.173,198.626v-2.233h-9.436v2.228
		h3.564v10.371h2.306V198.62h3.565V198.626z M176.636,198.626v-2.233h-7.76v12.601h2.305v-5.457h4.213v-2.232h-4.213v-2.684h5.455
		V198.626z M183.691,209.249c3.601,0,6.212-2.594,6.212-6.555s-2.611-6.554-6.212-6.554s-6.212,2.593-6.212,6.554
		s2.605,6.551,6.207,6.551L183.691,209.249z M183.691,198.354c2.448,0,3.69,1.818,3.69,4.34s-1.242,4.34-3.69,4.34
		c-2.449,0-3.69-1.818-3.69-4.34s1.237-4.343,3.686-4.343L183.691,198.354z M196.991,209.249c3.547,0,5.223-2.233,5.223-5.654v-7.2
		h-2.306v6.426c0,2.341-0.485,4.214-2.917,4.214s-2.917-1.873-2.917-4.214v-6.428h-2.3v7.2c-0.008,3.42,1.672,5.652,5.214,5.652
		L196.991,209.249z M214.792,208.997v-12.601h-2.306v8.138l-5.384-8.138h-2.268v12.601h2.299v-8.646l5.763,8.643h1.891
		L214.792,208.997z M222.277,208.997c3.479,0,6.3-2.821,6.3-6.301c0-3.479-2.82-6.3-6.3-6.3h-4.717v12.601H222.277z
		 M222.277,198.607c2.448,0,3.69,1.565,3.69,4.087s-1.242,4.088-3.69,4.088h-2.413v-8.175H222.277L222.277,198.607z"/>
	<path fill="#898686" d="M196.091,158.997l-35.518-61.109c-5.527-9.511-14.583-9.516-20.121-0.013l-35.642,61.137
		c-5.538,9.5-1.051,17.278,9.974,17.278h71.313C197.12,176.29,201.618,168.509,196.091,158.997z M150.838,165.528
		c-3.376-0.01-6.104-2.755-6.095-6.131s2.755-6.105,6.131-6.095c3.369,0.01,6.096,2.743,6.096,6.112
		c0.015,3.361-2.698,6.099-6.06,6.113C150.886,165.528,150.862,165.528,150.838,165.528z M155.183,149.433h-8.691l-2.926-35.279
		h14.545L155.183,149.433z"/>
</g>
</svg>
